<svg height="197pt" preserveAspectRatio="xMidYMid meet" viewBox="0 0 197 197" width="197pt" xmlns="http://www.w3.org/2000/svg"><g transform="matrix(.1 0 0 -.1 0 197)"><path d="m586 1470c-3-5-1-105 5-418 3-144 6-173 19-176 20-6 340 0 346 7 3 2 7 16 9 31 3 14 7 37 9 51 3 14 7 56 11 93 5 65 5 66-9 34-19-41-58-58-100-42-29 10-28 37 5 114 34 79 43 109 28 101-5-4-9-10-9-16 0-15-52-70-80-84-29-15-60-12-71 7-24 36-2 80 97 199 35 43 64 83 64 91 0 11-32 13-161 13-88 0-162-2-163-5z"/><path d="m913 1412c-34-71-48-112-39-112 3 0 13 15 22 33 17 33 61 76 79 78 91 11 97 3 61-77-14-31-28-68-31-83l-4-26 20 25c70 86 89 101 111 94 52-16 48-37-47-219-69-132-113-243-97-246 14-3 367 3 370 6 5 5 3 575-2 584-3 4-96 8-208 9l-203 1z"/><path d="m1433 1463c13-3 17-15 17-46 0-28 3-37 9-28 5 7 7 27 4 43-3 19-1 28 6 24 5-4 12-2 16 4s-8 10-32 9c-21-1-30-3-20-6z"/><path d="m1509 1458c-4-63-3-78 4-78 4 0 7 10 7 23 0 12 3 32 6 45 4 13 2 22-5 22-6 0-11-6-12-12z"/><path d="m1568 1443c-11-28-13-30-25-15-11 15-12 14-13-9 0-15 7-29 15-33 8-3 14-2 13 2 0 4 4 18 10 32 11 25 11 25 11-7 1-18 4-33 9-33 9 0 8 77-1 87-4 3-13-7-19-24z"/><path d="m1240 777c0-25 41-33 57-11s9 31-12 14c-12-10-18-10-30 0s-15 10-15-3z"/><path d="m4 726c-10-27 1-179 14-184 9-3 12 14 12 64 0 73 5 80 14 23 15-97 44-114 61-36 14 62 21 66 20 9-2-55 1-63 19-56 10 4 14 29 13 98 0 99 3 93-49 87-3-1-9-20-13-43-12-69-21-76-30-22-5 27-8 52-7 57 1 4-1 7-5 8-5 0-16 2-26 4s-20-2-23-9z"/><path d="m244 728c-18-29-61-179-53-184 13-7 39 14 39 32 0 25 61 13 73-13 10-23 37-32 37-13 0 6-14 51-31 99-28 81-48 106-65 79zm31-106c-2-3-11-2-20 1-12 5-13 11-3 33l12 26 8-28c4-15 5-30 3-32z"/><path d="m376 731c-1-4-2-37-1-76 0-49-4-73-14-81-14-11-8-34 9-34 26 0 40 34 40 96 0 60 1 64 23 64s23-3 23-77c0-66 2-78 17-81s17 7 17 92c0 53-3 97-7 97-30 4-105 4-107 0z"/><path d="m563 732c-30-4-43-65-20-90 15-16 15-21-3-50-24-39-25-49-4-49 9 0 27 18 41 39 34 50 53 50 53-2 0-40 6-47 25-32 8 6 12 101 6 172-1 15-43 20-98 12zm65-54c-3-24-32-31-55-15-20 14-3 37 29 37 25 0 29-4 26-22z"/><path d="m718 732c-24-5-21-185 3-190 13-2 16 5 15 35-1 32 2 38 19 38 57 2 86 36 70 84-8 27-60 43-107 33zm67-57c0-28-41-33-48-6-6 25 1 33 28 29 12-2 20-10 20-23z"/><path d="m861 638c1-76 4-98 15-98 8 0 15 6 16 13 2 19 5 50 7 65 1 15 42 13 53-3 4-5 8-22 8-37 0-25 15-46 26-35 11 10 9 187-3 191-17 7-23-4-23-41 0-33-2-34-32-31-28 3-33 7-34 33-2 41-2 42-19 42-13 0-15-17-14-99z"/><path d="m1044 732c-6-4-10-49-10-100-1-111 13-118 63-32 35 58 36 58 34-7-1-41 15-66 28-45 5 9 7 157 2 184-3 18-39-8-53-40-9-20-23-46-31-56-13-18-14-14-12 37 3 58-2 72-21 59z"/><path d="m1207 726c-5-16-1-175 5-181 13-13 37 10 58 56 13 27 26 49 30 49 3 0 5-25 5-55-1-46 1-55 14-53 24 5 25 175 1 188-13 7-21-1-44-47-15-30-30-53-33-50-3 4-6 28-6 55 0 34-4 49-13 49-7 0-15-5-17-11z"/><path d="m1455 731c-3-2-5-33-5-67 0-39-5-68-13-76-8-7-14-30-14-51 0-24 5-37 14-37 7 0 13 9 13 20 0 12 7 20 18 21 9 0 25 2 36 4 28 5 46-5 46-26 0-10 7-19 15-19 11 0 15 11 15 40 0 22-3 40-7 40-5 0-7 34-7 75 1 41-1 76-5 76-22 4-102 4-106 0zm75-89c0-32-2-61-5-64s-16-3-29-1c-21 4-23 9-17 31 4 15 7 42 5 60-2 28 1 32 22 32 23 0 24-3 24-58z"/><path d="m1615 732c-3-3-5-48-5-99v-94l56 4c31 3 61 10 67 16 13 13 14 74 0 78-8 3-8 13 0 33 9 25 8 33-5 46-15 16-101 27-113 16zm88-38c13-14-7-34-34-34-22 0-29 5-29 20s7 20 28 20c16 0 31-3 35-6zm5-93c3-17-2-21-22-21-35 0-41 3-42 20-1 24 5 29 34 26 19-2 28-10 30-25z"/><path d="m1782 723c-4-10-7-54-7-97 1-66 5-80 18-82 15-2 17 10 17 97 0 95-9 121-28 82z"/><path d="m1853 731c-8-5-11-138-4-184 3-22 27 3 31 33 4 29 9 34 34 36 16 0 35 9 43 19 17 24 17 69 0 84-16 13-90 22-104 12zm80-43c7-22-4-38-28-38-13 0-25 6-28 13-7 21 4 37 28 37 13 0 25-6 28-12z"/></g></svg>